<?xml version="1.0" encoding="UTF-8" standalone="no"?>
<!-- Generator: Adobe Illustrator 18.0.0, SVG Export Plug-In . SVG Version: 6.00 Build 0)  -->

<svg
   version="1.1"
   id="Capa_1"
   x="0px"
   y="0px"
   viewBox="0 0 477.778 477.778"
   style="enable-background:new 0 0 477.778 477.778;"
   xml:space="preserve"
   sodipodi:docname="favicon.svg"
   inkscape:version="1.2.1 (9c6d41e410, 2022-07-14)"
   inkscape:export-filename="favicon.png"
   inkscape:export-xdpi="13.963636"
   inkscape:export-ydpi="13.963636"
   xmlns:inkscape="http://www.inkscape.org/namespaces/inkscape"
   xmlns:sodipodi="http://sodipodi.sourceforge.net/DTD/sodipodi-0.dtd"
   xmlns="http://www.w3.org/2000/svg"
   xmlns:svg="http://www.w3.org/2000/svg"><defs
   id="defs41" /><sodipodi:namedview
   id="namedview39"
   pagecolor="#ffffff"
   bordercolor="#000000"
   borderopacity="0.25"
   inkscape:showpageshadow="2"
   inkscape:pageopacity="0.0"
   inkscape:pagecheckerboard="0"
   inkscape:deskcolor="#d1d1d1"
   showgrid="true"
   inkscape:zoom="1.215072"
   inkscape:cx="407.79476"
   inkscape:cy="265.82787"
   inkscape:window-width="1920"
   inkscape:window-height="986"
   inkscape:window-x="3829"
   inkscape:window-y="-11"
   inkscape:window-maximized="1"
   inkscape:current-layer="Capa_1"><inkscape:grid
     type="xygrid"
     id="grid270" /></sodipodi:namedview>

<circle
   style="fill:#000000;fill-opacity:1;stroke-width:18.75;stroke-linecap:round;stroke-linejoin:round"
   id="path309"
   cx="240"
   cy="240"
   r="150" /><g
   id="g8">
</g>
<g
   id="g10">
</g>
<g
   id="g12">
</g>
<g
   id="g14">
</g>
<g
   id="g16">
</g>
<g
   id="g18">
</g>
<g
   id="g20">
</g>
<g
   id="g22">
</g>
<g
   id="g24">
</g>
<g
   id="g26">
</g>
<g
   id="g28">
</g>
<g
   id="g30">
</g>
<g
   id="g32">
</g>
<g
   id="g34">
</g>
<g
   id="g36">
</g>
<path
   style="fill:none;fill-opacity:1;stroke:#ffd35a;stroke-width:15.9036;stroke-linecap:round;stroke-linejoin:round;stroke-dasharray:none;stroke-opacity:1"
   d="M 240,102.16867 V 27.951807 m 0,424.096383 v -74.21686"
   id="path326"
   sodipodi:nodetypes="cccc"
   inkscape:export-filename="..\Documents\projet_web\weather_bet\favicon.png"
   inkscape:export-xdpi="7.4024096"
   inkscape:export-ydpi="7.4024096" /><path
   style="fill:#000000;fill-opacity:1;stroke:#ffd35a;stroke-width:15.9036;stroke-linecap:round;stroke-linejoin:round;stroke-dasharray:none;stroke-opacity:1"
   d="M 337.46146,142.53854 389.94071,90.059285 M 90.059285,389.94071 142.53854,337.46146"
   id="path326-0"
   sodipodi:nodetypes="cccc" /><path
   style="fill:#000000;fill-opacity:1;stroke:#ffd35a;stroke-width:15.9036;stroke-linecap:round;stroke-linejoin:round;stroke-dasharray:none;stroke-opacity:1"
   d="m 340.98929,333.93363 52.47925,52.47926 M 93.587111,86.531462 146.06637,139.01071"
   id="path326-0-6"
   sodipodi:nodetypes="cccc" /><g
   id="g6"
   style="fill:#ffd35a;fill-opacity:1;stroke:none;stroke-opacity:1"
   transform="matrix(0.53012048,0,0,0.53012048,112.77108,112.77108)">
	<path
   d="M 461.4,152.432 C 451.618,127.291 437.807,104.211 420.59,84.04 384.958,42.264 335.206,13.08 278.704,3.585 265.732,1.4 252.482,0 238.889,0 225.295,0 212.044,1.4 199.074,3.585 142.571,13.08 92.834,42.256 57.187,84.024 39.985,104.204 26.174,127.276 16.393,152.416 5.94,179.261 0,208.351 0,238.889 c 0,28.065 5.085,54.878 13.981,79.894 9.051,25.445 22.131,48.945 38.726,69.592 35.881,44.636 87.452,75.919 146.367,85.818 12.97,2.185 26.221,3.585 39.815,3.585 13.593,0 26.843,-1.4 39.815,-3.585 58.913,-9.9 110.486,-41.183 146.366,-85.812 16.595,-20.645 29.675,-44.145 38.725,-69.59 8.896,-25.016 13.983,-51.837 13.983,-79.902 0,-30.53 -5.942,-59.62 -16.378,-86.457 z M 433.375,168.6 391.6,192.713 c -7.915,-26.128 -22.365,-49.41 -41.447,-68.012 l 42.162,-24.34 c 17.808,19.706 31.837,42.794 41.06,68.239 z m -66.752,70.289 c 0,70.431 -57.297,127.734 -127.734,127.734 -70.439,0 -127.735,-57.303 -127.735,-127.734 0,-70.429 57.297,-127.734 127.735,-127.734 70.437,0 127.734,57.305 127.734,127.734 z M 238.889,31.852 c 13.623,0 26.921,1.408 39.815,3.927 v 48.757 c -12.754,-3.297 -26.052,-5.233 -39.815,-5.233 -13.765,0 -27.063,1.937 -39.815,5.233 V 35.779 c 12.892,-2.519 26.19,-3.927 39.815,-3.927 z m -153.413,68.502 42.164,24.347 c -19.082,18.594 -33.546,41.876 -41.463,68.004 L 44.402,168.592 C 53.64,143.147 67.669,120.059 85.476,100.354 Z M 41.992,302.609 84.388,278.137 c 6.75,26.556 20.11,50.438 38.321,69.824 L 80.717,372.199 C 63.626,351.942 50.359,328.388 41.992,302.609 Z m 196.897,143.317 c -13.625,0 -26.923,-1.408 -39.815,-3.927 v -48.757 c 12.752,3.298 26.05,5.233 39.815,5.233 13.763,0 27.061,-1.935 39.815,-5.233 v 48.757 c -12.894,2.519 -26.192,3.927 -39.815,3.927 z m 158.154,-73.727 -41.976,-24.238 c 18.211,-19.379 31.572,-43.268 38.321,-69.824 l 42.396,24.48 c -8.367,25.771 -21.633,49.325 -38.741,69.582 z"
   id="path2"
   style="fill:#ffd35a;fill-opacity:1;stroke:none;stroke-opacity:1" />
	<path
   d="m 252.388,221.533 c -20.312,-7.644 -28.664,-12.66 -28.664,-20.546 0,-6.687 5.009,-13.374 20.545,-13.374 8.958,0 16.238,1.486 22.024,3.289 3.281,1.019 6.842,0.639 9.86,-1.042 3.002,-1.672 5.179,-4.51 6.034,-7.847 l 0.218,-0.823 c 1.943,-7.613 -2.629,-15.375 -10.25,-17.342 -5.848,-1.516 -12.8,-2.62 -21.197,-2.994 v -8.969 c 0,-6.096 -4.518,-11.429 -10.587,-11.997 -6.96,-0.651 -12.821,4.817 -12.821,11.651 v 10.987 c -25.567,5.015 -40.374,21.501 -40.374,42.52 0,23.174 17.434,35.118 43.003,43.718 17.669,5.972 25.319,11.704 25.319,20.778 0,9.557 -9.315,14.815 -22.94,14.815 -9.751,0 -18.944,-1.983 -26.921,-4.813 -3.328,-1.19 -7.015,-0.903 -10.142,0.761 -3.125,1.664 -5.412,4.556 -6.283,7.995 l -0.108,0.405 c -2.084,8.141 2.612,16.469 10.653,18.896 7.885,2.371 17.156,4.043 26.595,4.464 v 10.669 c 0,6.464 5.24,11.704 11.704,11.704 v 0 c 6.464,0 11.704,-5.24 11.704,-11.704 v -12.341 c 27.466,-4.775 42.521,-22.933 42.521,-44.193 0,-21.493 -11.462,-34.635 -39.893,-44.667 z"
   id="path4"
   style="fill:#ffd35a;fill-opacity:1;stroke:none;stroke-opacity:1" />
</g><path
   style="fill:#000000;fill-opacity:1;stroke:#ffd35a;stroke-width:15.9036;stroke-linecap:round;stroke-linejoin:round;stroke-dasharray:none;stroke-opacity:1"
   d="m 377.83133,240 h 74.21686 m -424.096383,0 h 74.216863"
   id="path326-9"
   sodipodi:nodetypes="cccc" /><path
   style="fill:#000000;fill-opacity:1;stroke:#ffd35a;stroke-width:15.9036;stroke-linecap:round;stroke-linejoin:round;stroke-dasharray:none;stroke-opacity:1"
   d="m 377.83133,240 h 74.21686"
   id="path1122-6" /><path
   style="fill:#000000;fill-opacity:1;stroke:#ffd35a;stroke-width:15.9036;stroke-linecap:round;stroke-linejoin:round;stroke-dasharray:none;stroke-opacity:1"
   d="m 240,377.83133 v 74.21686"
   id="path1124" /></svg>
